#!OML:ASF C:\ViconDB\ViconDB\414\Spring2016\041811\Spring2016.ASF
:FULLY-SPECIFIED
:DEGREES
415
root 11.1777 11.8825 -14.5774 61.904 -24.304 324.853
lowerback 35.6569 -2.99036 -7.35147
upperback 12.3836 -7.22998 -8.39579
thorax -4.46896 -3.56554 -2.46482
lowerneck -18.5834 -2.92391 -11.5744
upperneck 18.0481 -8.36151 31.5169
head 11.2155 -2.09561 13.0621
rclavicle 2.22639e-014 3.02153e-014
rhumerus -37.0717 -32.1667 -24.6249
rradius 26.1003
rwrist 35.843
rhand -37.2454 -25.1821
rfingers 7.12502
rthumb -10.3114 -54.9093
lclavicle 2.22639e-014 3.02153e-014
lhumerus 7.30654 6.06812 47.0342
lradius 32.8601
lwrist 33.0976
lhand -50.899 89.6476
lfingers 7.12502
lthumb -23.4517 -118.238
rfemur 216.639 209.101 -140.4
rtibia -94.2298
rfoot 67.9084 -123.378
rtoes 47.561
lfemur -116.038 -7.44025 -32.2388
ltibia 87.9527
lfoot -21.0067 13.8815
ltoes 0.521405
416
root 11.3183 11.9039 -14.5986 63.3679 -26.8139 324.226
lowerback 36.3929 -3.12026 -7.20021
upperback 12.0929 -7.48516 -8.38882
thorax -5.06739 -3.66332 -2.39275
lowerneck -18.9706 -2.98815 -11.9416
upperneck 17.6001 -8.37456 32.0279
head 11.2089 -2.10377 13.3577
rclavicle -1.59028e-014 9.22361e-014
rhumerus -33.4724 -30.5091 -27.3321
rradius 26.9431
rwrist 36.0326
rhand -36.3444 -25.1387
rfingers 7.12502
rthumb -9.44211 -54.9072
lclavicle -1.59028e-014 9.22361e-014
lhumerus 6.61927 6.44968 47.2037
lradius 32.5294
lwrist 33.6426
lhand -50.0186 88.2073
lfingers 7.12502
lthumb -22.6069 -116.903
rfemur 214.669 208.262 -141.397
rtibia -94.1386
rfoot 65.9622 -123.894
rtoes 47.0569
lfemur -116.615 -7.12485 -32.3088
ltibia 86.4952
lfoot -20.5322 14.1514
ltoes 1.35768
417
root 11.4479 11.9124 -14.6261 65.638 -28.9545 322.888
lowerback 36.275 -2.7799 -7.27147
upperback 11.9593 -7.07135 -7.69439
thorax -5.05453 -3.50396 -1.7775
lowerneck -19.5812 -3.22974 -12.2036
upperneck 17.1182 -8.50517 31.9395
head 11.2096 -2.16113 13.3088
rclavicle -6.36111e-015 -7.31528e-014
rhumerus -29.8367 -28.9524 -28.8558
rradius 27.3683
rwrist 35.862
rhand -35.6661 -24.0597
rfingers 7.12502
rthumb -8.78761 -53.8567
lclavicle -6.36111e-015 -7.31528e-014
lhumerus 6.4755 6.54912 47.9836
lradius 31.9115
lwrist 34.5839
lhand -49.865 88.8367
lfingers 7.12502
lthumb -22.4595 -117.551
rfemur 212.334 207.198 -141.389
rtibia -94.1984
rfoot 64.5216 -123.374
rtoes 46.6281
lfemur -118.122 -6.42819 -31.3962
ltibia 85.2606
lfoot -19.5448 13.748
ltoes 2.16557
418
root 11.5774 11.9398 -14.6283 67.9073 -31.3313 321.134
lowerback 36.644 -2.4335 -7.41795
upperback 11.6297 -6.79613 -7.38923
thorax -5.35721 -3.38304 -1.51292
lowerneck -20.0385 -3.24376 -11.9985
upperneck 16.8082 -8.51837 31.9
head 11.189 -2.14261 13.2126
rclavicle 0 -5.32743e-014
rhumerus -26.4582 -27.517 -30.505
rradius 27.3776
rwrist 35.1294
rhand -35.8586 -23.6648
rfingers 7.12502
rthumb -8.97333 -53.4539
lclavicle 0 -5.32743e-014
lhumerus 6.09552 6.77763 48.2143
lradius 31.0958
lwrist 35.0399
lhand -49.5761 87.6643
lfingers 7.12502
lthumb -22.1822 -116.412
rfemur 210.178 206.312 -141.534
rtibia -94.0619
rfoot 63.8077 -122.346
rtoes 45.5785
lfemur -119.223 -5.28456 -30.4023
ltibia 84.1772
lfoot -18.2115 13.137
ltoes 2.6414
419
root 11.7122 11.9724 -14.6133 70.2837 -33.5871 319.512
lowerback 36.9268 -2.39369 -7.2128
upperback 11.3494 -6.7835 -7.41151
thorax -5.79531 -3.3662 -1.61334
lowerneck -20.2927 -3.14363 -11.5663
upperneck 16.4657 -8.49631 32.0519
head 11.1133 -2.10828 13.1556
rclavicle -1.59028e-014 2.78299e-014
rhumerus -23.4595 -26.6218 -32.0443
rradius 27.1275
rwrist 35.244
rhand -35.6333 -23.6431
rfingers 7.12502
rthumb -8.75599 -53.4415
lclavicle -1.59028e-014 2.78299e-014
lhumerus 5.99461 7.01415 48.1779
lradius 29.8765
lwrist 35.0079
lhand -49.047 86.6796
lfingers 7.12502
lthumb -21.6742 -115.486
rfemur 207.642 206.158 -141.26
rtibia -93.8683
rfoot 63.6998 -121.157
rtoes 44.9392
lfemur -120.276 -4.43955 -29.1601
ltibia 83.0722
lfoot -16.7598 12.5731
ltoes 3.51481
420
root 11.8339 12.0229 -14.5918 72.8162 -35.7372 317.585
lowerback 37.2391 -2.2606 -7.18444
upperback 11.0785 -6.72275 -7.43792
thorax -6.21121 -3.33124 -1.64786
lowerneck -20.4017 -2.98773 -11.1624
upperneck 15.9849 -8.36456 32.2586
head 10.9326 -2.04096 13.1271
rclavicle -1.59028e-014 4.13472e-014
rhumerus -20.7959 -26.5274 -33.3563
rradius 26.9186
rwrist 35.6769
rhand -35.4129 -23.3676
rfingers 7.12502
rthumb -8.54327 -53.1747
lclavicle -1.59028e-014 4.13472e-014
lhumerus 5.80744 7.4177 48.1227
lradius 28.7554
lwrist 34.8168
lhand -48.4137 85.852
lfingers 7.12502
lthumb -21.0659 -114.728
rfemur 205.062 206.04 -140.592
rtibia -93.4784
rfoot 63.5537 -120.039
rtoes 43.302
lfemur -121.275 -3.2431 -28.0151
ltibia 82.0023
lfoot -15.1677 11.9764
ltoes 4.78657
421
root 11.9558 12.0794 -14.5583 75.3325 -37.7856 315.725
lowerback 37.5583 -2.19209 -6.917
upperback 10.9257 -6.66781 -7.59709
thorax -6.54719 -3.30183 -1.94547
lowerneck -20.7072 -2.95946 -10.6427
upperneck 15.5093 -8.43355 32.3719
head 10.8419 -2.05159 13.0033
rclavicle -1.46306e-013 5.56597e-015
rhumerus -18.7045 -26.8218 -34.6159
rradius 26.8532
rwrist 35.1446
rhand -35.2926 -24.1832
rfingers 7.12502
rthumb -8.42719 -53.9951
lclavicle -1.46306e-013 5.56597e-015
lhumerus 5.7236 7.33286 47.6613
lradius 27.8685
lwrist 34.6577
lhand -47.5284 84.1694
lfingers 7.12502
lthumb -20.2152 -113.138
rfemur 202.363 206.413 -139.61
rtibia -93.0128
rfoot 63.4693 -118.78
rtoes 41.7575
lfemur -121.991 -2.20319 -26.8917
ltibia 80.7342
lfoot -14.0584 11.9669
ltoes 5.11054
422
root 12.068 12.1403 -14.5174 77.9634 -39.7042 313.673
lowerback 37.9287 -2.16378 -6.82521
upperback 10.5575 -6.70784 -7.58388
thorax -7.09302 -3.30404 -1.92816
lowerneck -20.8043 -2.87555 -10.5284
upperneck 15.618 -8.34746 32.1369
head 10.8464 -2.01276 12.8879
rclavicle 8.90555e-014 -9.14409e-014
rhumerus -16.7633 -27.1737 -35.4927
rradius 26.8929
rwrist 35.5601
rhand -34.9971 -24.5624
rfingers 7.12502
rthumb -8.14197 -54.3855
lclavicle 8.90555e-014 -9.14409e-014
lhumerus 5.54176 8.92684 48.1329
lradius 26.1518
lwrist 32.5142
lhand -46.9736 81.0676
lfingers 7.12502
lthumb -19.6819 -110.091
rfemur 199.693 206.941 -138.341
rtibia -92.4734
rfoot 63.1986 -117.61
rtoes 40.9558
lfemur -122.531 -1.16584 -26.0952
ltibia 79.3664
lfoot -13.0253 12.6911
ltoes 5.71109
423
root 12.1684 12.2331 -14.4744 80.8032 -41.3981 311.297
lowerback 38.1653 -1.89203 -7.10657
upperback 10.1715 -6.52221 -7.20145
thorax -7.51384 -3.21259 -1.42707
lowerneck -20.6651 -2.93305 -11.1088
upperneck 15.4131 -8.21385 32.1557
head 10.7285 -2.00986 13.0167
rclavicle -3.49861e-014 -1.16488e-013
rhumerus -14.7889 -26.594 -36.089
rradius 26.6033
rwrist 34.5274
rhand -35.1642 -24.7297
rfingers 7.12502
rthumb -8.30326 -54.5465
lclavicle -3.49861e-014 -1.16488e-013
lhumerus 4.56395 10.0211 48.4219
lradius 25.4502
lwrist 31.3071
lhand -46.3789 77.7549
lfingers 7.12502
lthumb -19.1101 -106.836
rfemur 197.134 207.146 -136.815
rtibia -91.7448
rfoot 62.6801 -116.57
rtoes 39.4701
lfemur -122.819 0.249436 -25.2773
ltibia 77.8559
lfoot -12.3742 13.5821
ltoes 6.27371
424
root 12.2606 12.2797 -14.4271 83.1716 -43.1393 309.389
lowerback 38.7127 -1.82602 -6.93988
upperback 9.83669 -6.47637 -7.02085
thorax -8.06705 -3.17462 -1.30119
lowerneck -20.3772 -3.05329 -11.447
upperneck 15.0605 -8.17093 31.9906
head 10.5265 -2.05503 12.9631
rclavicle 3.81667e-014 -5.56597e-015
rhumerus -13.722 -26.6221 -36.1516
rradius 26.4037
rwrist 34.1841
rhand -35.237 -24.7999
rfingers 7.12502
rthumb -8.37349 -54.6139
lclavicle 3.81667e-014 -5.56597e-015
lhumerus 3.95752 10.9607 48.8759
lradius 24.6719
lwrist 29.7772
lhand -45.544 74.4367
lfingers 7.12502
lthumb -18.3071 -103.595
rfemur 194.999 208.069 -135.537
rtibia -91.3363
rfoot 63.0892 -115.824
rtoes 38.5525
lfemur -122.819 1.02982 -24.8775
ltibia 76.3589
lfoot -11.7217 14.5463
ltoes 6.44521
425
root 12.3383 12.3156 -14.3855 86.0745 -44.7617 306.909
lowerback 38.5689 -1.79669 -6.64549
upperback 9.76984 -6.40696 -7.27153
thorax -8.16564 -3.15472 -1.73872
lowerneck -20.4396 -2.97247 -11.0234
upperneck 14.7783 -8.11191 31.8545
head 10.3957 -2.0277 12.7769
rclavicle -1.52667e-013 -9.26337e-014
rhumerus -13.0079 -26.6842 -36.8454
rradius 26.1386
rwrist 33.8933
rhand -35.3376 -24.7731
rfingers 7.12502
rthumb -8.47058 -54.5833
lclavicle -1.52667e-013 -9.26337e-014
lhumerus 3.89074 12.3522 48.8759
lradius 23.5677
lwrist 27.696
lhand -44.5567 69.7028
lfingers 7.12502
lthumb -17.357 -98.9478
rfemur 193.007 208.63 -134.021
rtibia -91.0531
rfoot 63.8845 -114.887
rtoes 37.4778
lfemur -123.004 2.12943 -24.2728
ltibia 74.9767
lfoot -11.3602 15.2845
ltoes 7.20046
